<?xml version="1.0" standalone="no"?>
<!DOCTYPE svg PUBLIC "-//W3C//DTD SVG 20010904//EN"
 "http://www.w3.org/TR/2001/REC-SVG-20010904/DTD/svg10.dtd">
<svg version="1.0" xmlns="http://www.w3.org/2000/svg"
 width="200.000000pt" height="200.000000pt" viewBox="0 0 200.000000 200.000000"
 preserveAspectRatio="xMidYMid meet">
<metadata>
Created by potrace 1.16, written by Peter Selinger 2001-2019
</metadata>
<g transform="translate(0.000000,200.000000) scale(0.100000,-0.100000)"
fill="#000000" stroke="none" style="stroke: grey;stroke-width: 10px;fill: lightgrey;">
<path d="M882 1986 c-209 -51 -404 -247 -443 -446 -9 -44 -18 -63 -36 -75 -50
-33 -63 -84 -63 -258 0 -181 7 -208 71 -259 22 -17 39 -37 39 -43 0 -22 43
-119 82 -184 21 -35 37 -65 36 -66 -2 -2 -57 -21 -123 -43 -134 -45 -303 -120
-351 -157 -18 -13 -44 -48 -58 -77 -24 -48 -26 -61 -26 -190 0 -134 1 -140 25
-163 l24 -25 946 0 946 0 25 25 c25 25 25 26 22 179 -3 153 -3 155 -33 198
-17 24 -55 58 -85 75 -71 43 -255 121 -354 150 -44 12 -81 25 -83 27 -3 3 10
26 28 52 34 50 88 168 89 195 0 9 18 31 41 49 62 50 69 75 69 261 0 178 -8
212 -62 252 -16 12 -28 30 -28 43 0 35 -44 147 -81 210 -73 121 -231 236 -370
269 -77 18 -174 18 -247 1z m235 -171 c127 -38 245 -156 284 -285 18 -61 20
-89 17 -304 -2 -190 -6 -238 -17 -245 -27 -17 -222 -53 -326 -60 -118 -9 -139
-20 -151 -78 -5 -27 -1 -37 24 -63 37 -36 69 -38 248 -15 64 9 119 14 121 11
2 -2 -22 -31 -54 -63 -122 -125 -258 -158 -388 -94 -107 53 -204 166 -257 300
-20 51 -22 77 -26 292 -4 259 4 321 53 405 51 87 155 170 248 199 57 18 163
18 224 0z m-343 -1334 c129 -80 333 -80 462 0 40 24 95 24 193 -1 148 -38 368
-133 395 -171 10 -15 16 -44 16 -81 l0 -58 -835 0 -835 0 0 49 c0 81 10 96
100 141 234 118 432 165 504 121z"/>
</g>
</svg>
